<?xml version="1.0" encoding="UTF-8"?>
<svg id="Layer_1" xmlns="http://www.w3.org/2000/svg" version="1.1" viewBox="0 0 580.33 126.11">
  <!-- Generator: Adobe Illustrator 29.4.0, SVG Export Plug-In . SVG Version: 2.1.0 Build 152)  -->
  <path d="M412.46,68c.31-.58.52-1,.72-1.33,4.09-8.17,8.21-16.34,12.26-24.54.5-1.45,1.95-2.34,3.47-2.13.91.09,1.84,0,2.76,0,.74-.04,1.37.52,1.41,1.26,0,.07,0,.13,0,.2v42.26c0,2.15-.24,2.38-2.43,2.38h-3c-.79.12-1.52-.41-1.65-1.2-.02-.14-.02-.28,0-.42v-27.79l-.27-.06c-.19.36-.39.72-.57,1.09-2.95,5.94-5.92,11.87-8.82,17.83-.35,1.1-1.44,1.79-2.58,1.62-.92-.09-1.84-.09-2.76,0-1.06.14-2.06-.49-2.39-1.51-2.94-6-5.92-12-8.88-17.94-.18-.4-.46-.74-.81-1v27c0,2.14-.27,2.41-2.42,2.41h-3.12c-.79.08-1.49-.5-1.56-1.28,0-.1,0-.2,0-.3v-42.15c0-2.13.26-2.4,2.44-2.39,4.35,0,3.93-.43,6,3.66,3.83,7.65,7.65,15.29,11.47,22.92.19.41.41.77.73,1.41h0Z"/>
  <path d="M516.08,72.49v-30.19c0-2,.24-2.29,2.26-2.29h3c1.4,0,1.76.41,1.76,1.82v42.11c0,1.86-.29,2.15-2.15,2.16-.72-.04-1.44-.04-2.16,0-1.8.23-2.9-.64-3.83-2.07-6.31-9.77-12.65-19.52-19-29.26-.26-.45-.63-.84-1.07-1.12v30c0,2.17-.25,2.41-2.41,2.41h-3c-1.24,0-1.65-.46-1.66-1.69v-42.08c0-2,.28-2.31,2.29-2.27,4.46.08,3.82-.84,6.71,3.57l18.25,27.89.72,1.08.29-.07Z"/>
  <path d="M286.2,74.58v9.48c0,1.69-.34,2-2,2h-3c-1.68,0-2-.34-2-2.06v-41.46c0-2.34.19-2.55,2.52-2.53,4.67,0,9.35,0,14,.15,6.15.01,11.63,3.91,13.64,9.73,1.06,3.22,1,6.53.88,9.85-.17,4.68-1.8,8.72-5.56,11.72-1.47,1.17-1.49,1.15-.72,2.85,1.45,3.2,2.9,6.4,4.34,9.6.65,1.45.24,2.14-1.33,2.19h-3.48c-1.07.08-2.05-.58-2.38-1.6-1.32-3-2.69-6.06-4.07-9.07-.16-.34-.53-.82-.82-.83-3.31-.04-6.58-.02-10.02-.02ZM286.25,67.45c3.18,0,6.27.23,9.32-.06,3.64-.12,6.69-2.8,7.28-6.39.56-2.47.56-5.03,0-7.5-.74-3.24-2.75-5.41-6-5.92-2.89-.31-5.8-.48-8.71-.49h-1.87l-.02,20.36Z"/>
  <path d="M533.4,63.06v-21c0-1.7.32-2.06,2-2.05,4.64,0,9.28-.1,13.91.18,6,.37,10.86,3,13.21,8.88.69,1.83,1.06,3.76,1.1,5.71.14,5.48.05,11,.05,16.43,0,7.58-4.87,13.42-12.35,14.44-3.38.33-6.77.48-10.17.45-1.95.05-3.92,0-5.87,0-1.55,0-1.9-.39-1.9-1.93.01-7.04.02-14.08.02-21.11ZM540.52,78.92c2.61.16,5.23.16,7.84,0,5.47-.67,8.06-3.67,8.27-9.22.1-2.59.07-5.2,0-7.79.05-2.44-.04-4.87-.25-7.3-.45-3.59-2.5-6.2-6.07-6.89-3.26-.46-6.53-.73-9.82-.81l.03,32.01Z"/>
  <path d="M235.78,63.26c0-3.32-.23-6.65.05-9.94.61-7.22,5.07-12,12.18-13.3,4.49-.97,9.17-.5,13.38,1.34,3.64,1.63,6.33,4.85,7.26,8.73.55,2.04.85,4.14.92,6.25.13,4.76.09,9.52,0,14.28.02,2.97-.69,5.9-2.08,8.53-1.91,3.49-5.28,5.96-9.19,6.72-4.05.99-8.29.91-12.3-.24-6.13-1.81-9.44-6.13-10.13-12.32-.2-3.35-.22-6.7-.06-10.05h-.03ZM262.47,63.15c0-2.56.16-5.13,0-7.67-.12-1.62-.57-3.21-1.31-4.66-1.84-3.55-6.53-5.19-11.2-4.17-4.05.87-6.89,3.81-7.09,8-.25,5.3-.28,10.63-.08,15.93s3,8.32,8.29,9.05,11.2-1.77,11.44-9.28c.02-2.35-.05-4.8-.05-7.2Z"/>
  <path d="M356,77.66c-.66,2.12-1.34,4.29-2,6.45-.56,1.78-.86,2-2.75,2h-3.35c-1.11,0-1.63-.71-1.28-1.86,4.37-14.24,8.74-28.48,13.1-42.71.18-.99,1.11-1.67,2.11-1.54,2.32.04,4.65.04,7,0,1-.11,1.91.57,2.08,1.56,4.35,14.2,8.71,28.4,13.06,42.59.38,1.24,0,1.88-1.29,1.93s-2.72,0-4.08,0c-.92,0-1.7-.66-1.85-1.57-.64-2.06-1.23-4.14-1.92-6.18-.17-.39-.51-.67-.92-.77h-17.52c-.13.02-.27.05-.39.1h0ZM365.26,47.66l-7.08,23h14.24l-7.16-23Z"/>
  <path d="M203.4,74.5v9.27c0,2.08-.25,2.33-2.35,2.33h-3.12c-.77.1-1.47-.43-1.58-1.2-.02-.11-.02-.23,0-.34v-42.08c0-2.27.2-2.48,2.46-2.47,4.67,0,9.36-.11,14,.18,6.18.37,11.19,3,13.41,9.1,1.97,5.31,1.93,11.15-.12,16.43-2.18,5.68-6.88,8.24-12.69,8.73-3.24.27-6.53.05-10.01.05h0ZM203.4,67.59h6.7c.88,0,1.76-.04,2.63-.15,4-.58,6.6-2.68,7.22-6.45.38-2.44.38-4.93,0-7.37-.34-3.16-2.84-5.66-6-6-3.18-.46-6.44-.36-9.67-.5-.3.01-.61.04-.91.09l.03,20.38Z"/>
  <path d="M477.46,57.07c0,5,.19,10.09,0,15.12-.28,5.73-2.71,10.32-8.24,12.76-5.6,2.05-11.74,2.05-17.34,0-4.85-2.09-7.38-5.94-8.14-11-.21-1.38-.31-2.77-.3-4.17v-27.6c0-1.88.29-2.16,2.14-2.17h3c1.54,0,1.88.38,1.88,1.94v27c-.02,1.24.09,2.48.32,3.7.88,4.26,4,6.86,8.65,7,1.91.06,3.82-.21,5.64-.79,3.12-1,4.75-3.52,5.25-6.72.16-1.11.24-2.22.23-3.34v-26.64c0-1.87.28-2.16,2.14-2.17h3.12c1.39,0,1.76.41,1.76,1.82v15.24l-.11.02Z"/>
  <path d="M171,39.52c3.53-.07,7.04.54,10.34,1.8,1.25.51,1.42.78,1,2.07-.36,1-.8,1.92-1.17,2.89s-.88,1-1.78.93c-3.06-.33-6.12-.64-9.18-.8-1.28,0-2.55.14-3.8.43-2.14.41-3.81,1.45-4.27,3.78-.5,2.57.24,4.5,2.56,5.78,1.98,1.02,4.03,1.92,6.12,2.69,3.29,1.33,6.73,2.33,9.88,3.92,5.8,2.93,8.05,8.32,6.38,14.6-1.06,4-3.86,6.35-7.64,7.62-5.76,1.92-11.59,1.49-17.38.14-1.74-.4-3.41-1.12-5.11-1.69-1.13-.38-1.34-1.15-.91-2.17s.93-2.12,1.38-3.19,1-1.18,2-.76c4.27,1.76,8.89,2.49,13.49,2.11,1.39-.06,2.76-.29,4.09-.67,2.69-.82,4.21-3.67,3.39-6.37-.25-.82-.7-1.56-1.32-2.16-1.52-1.34-3.26-2.41-5.14-3.17-3.38-1.43-6.94-2.42-10.3-3.88-1.98-.92-3.84-2.09-5.53-3.48-5-3.89-4.8-15.48,4-18.79,1.38-.52,2.81-.9,4.26-1.15,1.53-.32,3.09-.35,4.64-.48h0Z"/>
  <path d="M335,47.09v36.72c0,2-.25,2.29-2.25,2.29h-2.88c-1.55,0-1.89-.37-1.89-1.94v-37.07h-10.38c-1.35,0-1.78-.44-1.8-1.81s0-2.47,0-3.71c-.09-.77.45-1.47,1.22-1.56.07,0,.15-.01.22,0h27.52c2.18,0,2.42.24,2.43,2.39v2.88c0,1.36-.44,1.8-1.79,1.8h-8.88l-1.52.02Z"/>
  <path d="M573.26,63v-21c0-1.62.34-2,2-2h3.12c1.64,0,2,.35,2,2v41.7c0,2.18-.23,2.4-2.4,2.4h-2.64c-1.7,0-2-.34-2-2l-.08-21.1Z"/>
  <path d="M123.25,71.85c-2.61-2.25-5.64-3.97-8.91-5.06-8.78-3.12-17.94-5.04-27.24-5.71-7.92-.69-15.88-1-23.83-1.25-8.91-.31-16.15-3.83-21.55-10.91-2.43-3.21-4.05-6.95-4.72-10.92.33-.1.66-.17,1-.22,5.5-.42,11-1,16.5-1.21,13.54-.62,27.1.1,40.5,2.15,6.51,1.05,13,2.4,19,5.07,2.11.93,4.26,1.88,5.59,4,.14.17.34.28.56.3h6c.01-.2.01-.41,0-.61-.27-3.06-2.17-5.07-4.47-6.78-3.17-2.16-6.67-3.81-10.35-4.9-.56-.29-1.03-.74-1.33-1.3-.82-1.22-1.41-2.6-2.29-3.78-3.2-4.26-7.52-7.11-12.29-9.33-1-.46-1.79-1.28-2.22-2.29C86.94,6.67,76.78-.09,62.92,0s-24,7.12-30.16,19.7c-.31.57-.78,1.05-1.35,1.37-2,1.18-4.11,2.15-6.05,3.41-4.04,2.43-7.25,6.02-9.21,10.31-.28.46-.71.81-1.21,1-2.7,1.18-5.5,2.17-8.13,3.47-2.62,1.18-4.76,3.2-6.09,5.74-1.51,3.12-.61,6.58,2.34,9.3,2.62,2.24,5.65,3.94,8.92,5,8.78,3.12,17.94,5.04,27.24,5.7,7.88.68,15.8,1,23.71,1.24,9.93.36,17.65,4.53,23,12.94,1.72,2.7,2.87,5.73,3.38,8.9-.3.08-.6.15-.9.2-3.71.34-7.4.77-11.11,1-14.22.91-28.49.43-42.62-1.41-6.75-.78-13.39-2.29-19.81-4.52-3.09-1.15-6.3-2.18-8.31-5.14-.16-.13-.36-.18-.56-.15H0c.06.67.17,1.34.32,2,.74,2.22,2.22,4.12,4.18,5.39,3.12,2.17,6.59,3.8,10.25,4.83.75.22,1.37.78,1.66,1.51.6,1.26,1.32,2.47,2.13,3.6,3.18,4.01,7.3,7.16,12,9.18,1.21.56,2.18,1.53,2.73,2.75,6.3,12.29,16.44,18.95,30.21,18.82,14-.13,24-7.16,30.1-19.78.3-.54.75-.98,1.29-1.27,1.89-1.11,3.9-2,5.74-3.21,4.15-2.65,7.61-5.95,9.59-10.59.3-.44.74-.78,1.25-.94,2.67-1.16,5.44-2.1,8-3.46,1.77-.93,3.36-2.16,4.69-3.64,3.19-3.67,2.77-8.01-.89-11.4h0ZM60,6.62c9.58-1.07,18.99,3.1,24.65,10.9-7.02-1.76-14.24-2.64-21.48-2.63-7.16,0-14.29.8-21.27,2.4,4.25-5.96,10.83-9.84,18.1-10.67ZM37.54,25.88c.05-.22.46-.42.73-.51,5.09-1.77,10.37-2.94,15.73-3.48,6.73-.74,13.52-.65,20.22.25,7.94,1.09,15.61,3.08,22.47,7.42,1.53,1,2.92,2.17,4.38,3.27-21.39-3.42-43.15-3.92-64.67-1.47.41-1.95.74-3.72,1.14-5.48ZM29.86,29.24l.3.16c-.04.81-.11,1.61-.23,2.41-.12.31-.38.53-.7.61-1.28.28-2.57.48-3.86.7l-.15-.28,4.64-3.6ZM18.13,54.52c-3.41-.87-6.66-2.29-9.62-4.19-2.51-1.72-2.51-2.83-.06-4.43,2-1.3,4.25-2.29,6.6-3.53,1,6.07,4.55,10.08,8.83,13.69-1.88-.51-3.88-.96-5.75-1.54ZM33.48,53.82c-3.82-1.82-7.34-4.06-9.9-7.55-1.26-1.62-1.96-3.59-2-5.64l8.86-1.82c1.2,6.4,4.09,12.37,8.38,17.27-1.82-.75-3.6-1.43-5.34-2.26ZM41.67,108.64c14.08,3.42,28.76,3.42,42.84,0-9.84,14.15-31.93,15.01-42.84,0ZM88.83,100c-.17.38-.49.67-.88.81-5.06,1.76-10.31,2.93-15.64,3.46-6.76.74-13.58.65-20.31-.27-7.89-1.09-15.52-3.06-22.35-7.37-1.55-1.03-3.02-2.18-4.39-3.44,21.36,3.54,43.11,4.08,64.62,1.61-.4,1.87-.67,3.52-1.05,5.2ZM96.38,96.94l-.27-.19c.07-.81.1-1.64.24-2.44.09-.3.34-.54.65-.61,1.31-.27,2.65-.48,4-.72l.09.32-4.71,3.64ZM95.85,87.35c-1.19-6.43-4.09-12.42-8.39-17.35,1.78.75,3.6,1.43,5.34,2.26,3.81,1.83,7.34,4.06,9.89,7.55,1.25,1.62,1.95,3.59,2,5.64l-8.84,1.9ZM117.76,80.35c-2,1.27-4.19,2.24-6.55,3.49-.37-2.85-1.5-5.55-3.27-7.82-1.7-2-3.63-3.88-5.51-5.87,1.87.5,3.79,1,5.67,1.52,3.41.87,6.66,2.28,9.63,4.17,2.53,1.67,2.6,2.77.03,4.42v.09Z"/>
</svg>